<svg width="278" height="220" viewBox="0 0 275 268" fill="none" xmlns="http://www.w3.org/2000/svg">
<g clip-path="url(#clip0_2076_82)">
<path fill-rule="evenodd" clip-rule="evenodd" d="M117.501 109.324C114.313 104.72 109.598 101.282 103.06 99.7008C82.835 94.8096 68.7617 103.61 59.571 118.137C46.1517 139.35 43.3144 172.931 46.6455 192.212C46.8021 193.125 47.6983 193.793 48.6411 193.705C49.5878 193.619 50.2284 192.81 50.0717 191.896C46.8374 173.182 49.5549 140.584 62.5769 119.996C71.0164 106.657 83.8596 98.4231 102.436 102.918C107.965 104.252 111.935 107.165 114.64 111.052C112.128 112.606 109.7 114.211 107.362 115.865C100.91 120.433 86.9001 135.249 81.6446 148.902C77.8774 158.696 78.6071 167.882 88.414 172.933C93.8655 175.74 99.4411 174.784 104.501 171.181C111.462 166.232 117.474 156.107 120.576 144.953C123.16 135.666 123.734 125.688 121.308 117.456C120.772 115.647 120.099 113.919 119.272 112.298C154.587 91.4039 204.584 81.1439 246.353 88.1218C247.305 88.2775 248.161 87.6791 248.259 86.7741C248.361 85.8712 247.667 85.0104 246.717 84.8511C204.266 77.7625 153.471 88.1337 117.501 109.324ZM116.389 114.047C114.032 115.513 111.752 117.025 109.553 118.582C103.372 122.962 89.9509 137.155 84.9161 150.236C81.8251 158.264 81.853 165.896 89.8904 170.037C94.1126 172.209 98.3849 171.257 102.307 168.472C106.617 165.403 110.484 160.17 113.455 153.962C117.966 144.536 120.399 132.857 118.982 122.875C118.534 119.713 117.692 116.723 116.389 114.047Z" fill="white"/>
<path fill-rule="evenodd" clip-rule="evenodd" d="M193.092 119.668C205.386 104.598 227.075 93.2491 246.688 87.902C247.59 87.6562 248.061 86.7397 247.739 85.8579C247.418 84.9762 246.426 84.4572 245.524 84.703C225.296 90.2149 202.974 101.979 190.298 117.515C189.73 118.21 189.895 119.258 190.667 119.854C191.436 120.447 192.524 120.363 193.092 119.668Z" fill="white"/>
<path fill-rule="evenodd" clip-rule="evenodd" d="M245.488 84.2928C228.267 84.0078 207.211 73.7621 194.195 62.0237C193.474 61.3721 192.374 61.3651 191.746 62.0129C191.113 62.6585 191.185 63.7078 191.907 64.3594C205.542 76.6565 227.63 87.3119 245.673 87.6108C246.629 87.6284 247.366 86.8948 247.317 85.9796C247.264 85.0623 246.447 84.3069 245.488 84.2928Z" fill="white"/>
</g>
<defs>
<clipPath id="clip0_2076_82">
<rect width="207.916" height="191.23" fill="white" transform="translate(91.7141) rotate(28.6593)"/>
</clipPath>
</defs>
</svg>
